<svg xmlns="http://www.w3.org/2000/svg" xmlns:xlink="http://www.w3.org/1999/xlink" width="500" zoomAndPan="magnify" viewBox="0 0 375 374.999991" height="500" preserveAspectRatio="xMidYMid meet" version="1.0"><path fill="#4338ca" d="M 64.550781 99.566406 C 64.441406 100.066406 64.347656 100.566406 64.253906 101.066406 C 63.144531 106.777344 62.585938 112.523438 62.679688 117.582031 C 62.699219 118.324219 62.753906 119.046875 62.828125 119.75 C 62.902344 120.269531 62.976562 120.769531 63.085938 121.253906 C 64.03125 125.441406 66.609375 128.648438 71.519531 132.023438 C 71.949219 132.320312 72.390625 132.617188 72.855469 132.910156 C 75.226562 134.433594 78.082031 136.027344 81.492188 137.769531 C 83.902344 139.011719 86.535156 140.179688 89.222656 141.273438 C 89.703125 141.476562 90.1875 141.660156 90.667969 141.847656 C 102.808594 146.589844 115.636719 149.613281 115.636719 149.613281 C 115.636719 149.613281 101.882812 211.394531 90.09375 206.460938 C 81.714844 202.957031 65.8125 193.875 52.429688 184.847656 C 51.984375 184.554688 51.558594 184.257812 51.113281 183.960938 C 46.164062 180.566406 41.605469 177.230469 37.988281 174.210938 C 30.890625 168.277344 26.144531 162.753906 23.902344 156.878906 C 23.71875 156.398438 23.550781 155.914062 23.402344 155.433594 C 21.863281 150.484375 22.050781 145.257812 24.011719 139.289062 C 25.589844 134.507812 27.757812 128.90625 30.445312 122.976562 C 30.667969 122.476562 30.890625 121.976562 31.132812 121.492188 C 34.839844 113.46875 39.433594 104.921875 44.738281 97.0625 C 45.035156 96.617188 45.328125 96.171875 45.644531 95.746094 C 47.128906 93.597656 48.667969 91.503906 50.242188 89.480469 C 62.476562 73.894531 70.1875 70.519531 71.6875 71.890625 C 73.1875 73.261719 70.390625 80.234375 67.351562 89.277344 C 66.21875 92.539062 65.292969 96.042969 64.550781 99.566406 Z M 313.433594 172.226562 C 306.222656 179.53125 296.9375 188 284.980469 197.972656 C 237.730469 237.398438 246.554688 150.132812 246.554688 150.132812 C 246.554688 150.132812 260.605469 142.476562 271.261719 136.265625 C 271.726562 135.988281 272.191406 135.730469 272.636719 135.46875 C 274.972656 134.097656 277.101562 132.820312 278.828125 131.726562 C 282.402344 129.464844 285.277344 127.425781 287.410156 125.238281 C 287.796875 124.832031 288.167969 124.421875 288.5 124.015625 C 291.226562 120.660156 292.265625 116.839844 291.484375 111.375 C 291.265625 109.777344 290.96875 108.109375 290.632812 106.386719 C 290.539062 105.886719 290.429688 105.386719 290.320312 104.867188 C 289.1875 99.585938 287.5 93.671875 285.035156 87.128906 C 284.851562 86.644531 284.664062 86.183594 284.480469 85.699219 C 282.589844 80.863281 280.289062 75.691406 277.453125 70.167969 C 273.730469 62.882812 273.785156 60.734375 276.175781 59.175781 C 278.566406 57.621094 290.484375 63.753906 301.902344 75.136719 C 303.035156 76.265625 304.257812 77.546875 305.574219 78.972656 C 305.925781 79.363281 306.296875 79.769531 306.667969 80.175781 C 311.558594 85.625 317.324219 92.761719 322.515625 100.140625 C 322.832031 100.585938 323.125 101.011719 323.441406 101.457031 C 330.503906 111.667969 336.289062 122.125 336.863281 128.90625 C 337.027344 130.796875 337.046875 132.726562 336.863281 134.765625 C 336.804688 135.265625 336.75 135.765625 336.675781 136.265625 C 335.417969 144.757812 330.078125 155.117188 314.527344 171.113281 C 314.15625 171.484375 313.804688 171.855469 313.433594 172.226562 Z M 313.433594 172.226562 " fill-opacity="1" fill-rule="evenodd"/><path fill="#a5b4fc" d="M 90.648438 141.828125 C 84.605469 150.335938 69.167969 170.984375 52.390625 184.847656 C 51.945312 184.554688 51.519531 184.257812 51.074219 183.960938 C 67.664062 170.355469 83.011719 149.929688 89.1875 141.253906 C 89.6875 141.4375 90.167969 141.640625 90.648438 141.828125 Z M 72.835938 132.894531 C 55.359375 147.054688 34.246094 154.0625 23.867188 156.859375 C 23.679688 156.378906 23.511719 155.894531 23.363281 155.414062 C 33.503906 152.691406 54.246094 145.851562 71.503906 132.003906 C 71.929688 132.320312 72.375 132.617188 72.835938 132.894531 Z M 63.085938 121.253906 C 56.582031 122.347656 44.976562 123.699219 30.425781 122.957031 C 30.648438 122.457031 30.871094 121.957031 31.113281 121.476562 C 45.253906 122.140625 56.507812 120.808594 62.828125 119.75 C 62.882812 120.269531 62.976562 120.769531 63.085938 121.253906 Z M 64.238281 101.066406 C 56.988281 100.160156 50.019531 98.527344 44.699219 97.046875 C 44.996094 96.601562 45.292969 96.15625 45.609375 95.730469 C 50.835938 97.175781 57.5625 98.730469 64.550781 99.585938 C 64.441406 100.066406 64.347656 100.566406 64.238281 101.066406 Z M 314.507812 171.132812 C 314.15625 171.484375 313.804688 171.855469 313.433594 172.226562 C 305.222656 165.570312 288.574219 151.835938 271.261719 136.285156 C 271.726562 136.007812 272.191406 135.746094 272.636719 135.488281 C 289.875 150.945312 306.40625 164.570312 314.507812 171.132812 Z M 336.84375 134.765625 C 336.789062 135.265625 336.730469 135.765625 336.65625 136.265625 C 316.601562 134.894531 296.527344 128.480469 287.410156 125.21875 C 287.796875 124.8125 288.167969 124.402344 288.5 123.996094 C 297.808594 127.3125 317.324219 133.46875 336.84375 134.765625 Z M 322.515625 100.140625 C 322.832031 100.585938 323.125 101.011719 323.441406 101.457031 C 316.621094 103.476562 305.480469 105.941406 290.613281 106.367188 C 290.523438 105.867188 290.410156 105.367188 290.300781 104.847656 C 304.796875 104.460938 315.730469 102.125 322.515625 100.140625 Z M 305.59375 78.992188 C 305.945312 79.378906 306.316406 79.789062 306.6875 80.195312 C 297.972656 83.699219 290.261719 85.886719 285.035156 87.148438 C 284.851562 86.664062 284.664062 86.203125 284.480469 85.71875 C 289.539062 84.496094 297.046875 82.382812 305.59375 78.992188 Z M 305.59375 78.992188 " fill-opacity="1" fill-rule="evenodd"/><path fill="#6366f1" d="M 78.933594 299.046875 L 292.691406 298.25 C 292.691406 298.25 295.453125 311.839844 305.035156 312.859375 C 314.601562 313.878906 320.363281 306.890625 320.363281 306.890625 C 320.363281 306.890625 328.910156 315.507812 336.972656 315.101562 C 345.035156 314.710938 350.542969 304.351562 350.542969 304.351562 C 350.542969 304.351562 357.824219 310.375 364.480469 308.835938 C 371.136719 307.296875 375.027344 299.789062 369.097656 287.371094 C 363.183594 274.933594 349.800781 261.402344 329.613281 264.886719 C 309.449219 268.371094 296.695312 280.789062 293.007812 287.628906 C 293.007812 287.628906 289.113281 277.066406 294.785156 268.742188 C 300.4375 260.421875 310.152344 257.9375 310.46875 254.953125 C 310.78125 251.96875 300.085938 247.257812 301.867188 245.015625 C 303.644531 242.792969 318.085938 234.394531 318.308594 232.171875 C 318.511719 229.964844 296.175781 227.019531 287.167969 201.347656 C 278.160156 175.675781 268.167969 161.125 253.933594 147.90625 C 239.695312 134.691406 223.328125 127.960938 221.734375 126.183594 C 220.140625 124.421875 223.050781 119.527344 225.5 116.527344 C 227.945312 113.523438 221.144531 112.820312 215.542969 114.023438 C 209.964844 115.246094 209.855469 113.265625 209.945312 110.296875 C 210.078125 106.703125 213.042969 99.378906 212.597656 98.878906 C 211.707031 97.859375 194.542969 93.820312 182.957031 109.613281 C 182.808594 109.816406 182.570312 109.945312 182.308594 109.925781 C 182.050781 109.925781 181.808594 109.796875 181.679688 109.574219 C 179.863281 107 174.394531 99.75 167.59375 95.617188 C 159.195312 90.5 156.0625 89.945312 156.988281 95.320312 C 157.917969 100.714844 158.214844 116.636719 151.707031 122.03125 C 145.203125 127.40625 142.050781 127.371094 129.128906 134.320312 C 114.503906 142.199219 98.65625 156.453125 85.71875 184.460938 C 72.78125 212.449219 72.449219 213.949219 63.644531 219.4375 C 54.003906 225.460938 47.609375 227.40625 51.371094 230.816406 C 55.136719 234.246094 65.980469 241.382812 66.089844 244.832031 C 66.203125 248.464844 55.117188 252.339844 55.226562 254.433594 C 55.339844 256.507812 69.222656 262.738281 74.339844 270.503906 C 81.085938 280.734375 78.007812 288.984375 78.007812 288.984375 C 78.007812 288.984375 67.257812 276.304688 53.839844 269.078125 C 40.4375 261.847656 28.015625 262.070312 19.769531 268 C 11.519531 273.953125 2.808594 285.722656 1.4375 294.859375 C 0.0820312 303.996094 7.535156 314.527344 20.824219 305.054688 C 20.824219 305.054688 24.699219 312.710938 32.707031 315.007812 C 40.695312 317.304688 51.222656 307.851562 51.222656 307.851562 C 51.222656 307.851562 55.839844 313.894531 62.882812 314.136719 C 69.964844 314.414062 76.042969 306.832031 78.933594 299.046875 Z M 78.933594 299.046875 " fill-opacity="1" fill-rule="evenodd"/><path fill="#4338ca" d="M 278.828125 244.570312 C 278.046875 244.238281 277.695312 243.347656 278.027344 242.570312 C 278.363281 241.792969 279.253906 241.4375 280.03125 241.773438 C 280.03125 241.773438 284.960938 243.867188 289.539062 244.441406 C 290.375 244.554688 290.96875 245.3125 290.855469 246.128906 C 290.761719 246.964844 290.003906 247.554688 289.167969 247.445312 C 284.183594 246.851562 278.828125 244.570312 278.828125 244.570312 Z M 257.214844 233.785156 C 256.582031 233.226562 256.507812 232.28125 257.046875 231.632812 C 257.601562 231.003906 258.546875 230.929688 259.195312 231.46875 C 259.195312 231.46875 264.554688 236.121094 268.425781 237.566406 C 269.207031 237.863281 269.613281 238.734375 269.316406 239.53125 C 269.019531 240.308594 268.148438 240.714844 267.351562 240.417969 C 263.125 238.84375 257.214844 233.785156 257.214844 233.785156 Z M 269.539062 227.054688 C 268.910156 226.5 268.871094 225.535156 269.429688 224.90625 C 269.984375 224.273438 270.949219 224.238281 271.578125 224.792969 C 271.578125 224.792969 277.195312 229.890625 280.996094 231.578125 C 281.753906 231.910156 282.105469 232.820312 281.773438 233.582031 C 281.441406 234.339844 280.53125 234.691406 279.773438 234.359375 C 275.636719 232.542969 269.539062 227.054688 269.539062 227.054688 Z M 106.015625 231.355469 C 105.257812 231.726562 104.347656 231.410156 103.976562 230.652344 C 103.605469 229.890625 103.921875 228.984375 104.683594 228.613281 C 104.683594 228.613281 109.910156 226.089844 112.746094 222.960938 C 113.300781 222.328125 114.265625 222.292969 114.894531 222.847656 C 115.523438 223.402344 115.5625 224.367188 115.007812 225 C 111.816406 228.519531 106.015625 231.355469 106.015625 231.355469 Z M 92.261719 245.480469 C 91.464844 245.777344 90.59375 245.367188 90.316406 244.570312 C 90.019531 243.773438 90.425781 242.902344 91.226562 242.625 C 91.226562 242.625 95.839844 240.9375 99.121094 238.011719 C 99.75 237.453125 100.714844 237.507812 101.269531 238.121094 C 101.828125 238.75 101.773438 239.714844 101.160156 240.273438 C 97.453125 243.570312 92.261719 245.480469 92.261719 245.480469 Z M 87.945312 229.371094 C 87.183594 229.726562 86.277344 229.390625 85.921875 228.632812 C 85.570312 227.871094 85.90625 226.960938 86.664062 226.609375 C 86.664062 226.609375 92.039062 224.125 95.097656 221.457031 C 95.730469 220.902344 96.691406 220.976562 97.25 221.605469 C 97.804688 222.234375 97.730469 223.199219 97.101562 223.757812 C 93.78125 226.667969 87.945312 229.371094 87.945312 229.371094 Z M 87.945312 229.371094 " fill-opacity="1" fill-rule="evenodd"/><path fill="#4338ca" d="M 152.113281 298.789062 L 209.707031 298.585938 C 209.707031 292.542969 209 283.238281 205.332031 275.824219 C 199.398438 263.832031 182.699219 258.027344 168.722656 269.296875 C 163.679688 273.359375 159.972656 279.03125 157.269531 284.609375 C 154.710938 289.875 153.078125 295.082031 152.113281 298.789062 Z M 152.113281 298.789062 " fill-opacity="1" fill-rule="evenodd"/><path fill="#a5b4fc" d="M 152.113281 298.789062 L 203.976562 298.605469 C 186.945312 281.589844 167.925781 282.3125 157.285156 284.609375 C 154.710938 289.875 153.078125 295.082031 152.113281 298.789062 Z M 152.113281 298.789062 " fill-opacity="1" fill-rule="evenodd"/><path fill="#eef2ff" d="M 135.839844 207.242188 C 133.523438 187.722656 146.164062 159.289062 175.453125 155.433594 C 202.644531 151.855469 223.589844 171.464844 229.148438 190.632812 C 234.933594 210.558594 224.21875 238.066406 196.636719 245.386719 C 172.484375 251.820312 139.863281 241.253906 135.839844 207.242188 Z M 135.839844 207.242188 " fill-opacity="1" fill-rule="evenodd"/><path fill="#4338ca" d="M 203.460938 191.152344 C 200.03125 191.152344 197.25 193.933594 197.25 197.359375 C 197.25 200.789062 200.03125 203.570312 203.460938 203.570312 C 206.886719 203.570312 209.667969 200.789062 209.667969 197.359375 C 209.667969 193.933594 206.886719 191.152344 203.460938 191.152344 Z M 165.703125 211.597656 C 163.457031 198.992188 170.652344 181.273438 188.816406 179.4375 C 205.238281 177.769531 217.378906 190.226562 217.789062 202.996094 C 218.25 217.730469 210.78125 227.59375 197.175781 230.855469 C 186.164062 233.46875 168.613281 227.871094 165.703125 211.597656 Z M 165.703125 211.597656 " fill-opacity="1" fill-rule="evenodd"/></svg>