<svg xmlns="http://www.w3.org/2000/svg" xmlns:xlink="http://www.w3.org/1999/xlink" width="500" zoomAndPan="magnify" viewBox="0 0 375 374.999991" height="500" preserveAspectRatio="xMidYMid meet" version="1.0"><path fill="#ffffff" d="M 320.082031 54.917969 C 284.667969 19.503906 237.585938 0 187.5 0 C 137.414062 0 90.332031 19.503906 54.917969 54.917969 C 19.503906 90.332031 0 137.417969 0 187.5 C 0 237.582031 19.503906 284.667969 54.917969 320.082031 C 90.332031 355.496094 137.414062 375 187.5 375 C 237.585938 375 284.667969 355.496094 320.082031 320.082031 C 355.496094 284.667969 375 237.585938 375 187.5 C 375 137.414062 355.496094 90.332031 320.082031 54.917969 Z M 320.082031 54.917969 " fill-opacity="1" fill-rule="nonzero"/><path fill="#d1d3f2" d="M 232.28125 98.445312 C 233.011719 99.175781 233.726562 99.925781 234.421875 100.695312 C 235.117188 101.464844 235.796875 102.246094 236.453125 103.046875 C 237.109375 103.851562 237.746094 104.667969 238.363281 105.5 C 238.980469 106.332031 239.578125 107.179688 240.15625 108.039062 C 240.730469 108.902344 241.285156 109.777344 241.816406 110.667969 C 242.351562 111.554688 242.859375 112.457031 243.347656 113.371094 C 243.839844 114.285156 244.304688 115.210938 244.746094 116.148438 C 245.191406 117.082031 245.609375 118.03125 246.007812 118.988281 C 246.402344 119.945312 246.777344 120.914062 247.125 121.886719 C 247.472656 122.863281 247.800781 123.847656 248.101562 124.839844 C 248.402344 125.832031 248.675781 126.828125 248.929688 127.835938 C 249.179688 128.839844 249.40625 129.851562 249.609375 130.867188 C 249.8125 131.882812 249.988281 132.90625 250.140625 133.929688 C 250.292969 134.957031 250.421875 135.984375 250.523438 137.015625 C 250.625 138.046875 250.699219 139.078125 250.75 140.113281 C 250.800781 141.148438 250.828125 142.183594 250.828125 143.222656 C 250.828125 144.257812 250.800781 145.292969 250.75 146.328125 C 250.699219 147.363281 250.625 148.398438 250.523438 149.429688 C 250.421875 150.460938 250.292969 151.488281 250.140625 152.511719 C 249.988281 153.539062 249.8125 154.558594 249.609375 155.574219 C 249.40625 156.59375 249.179688 157.601562 248.929688 158.609375 C 248.675781 159.613281 248.402344 160.613281 248.101562 161.605469 C 247.800781 162.597656 247.472656 163.578125 247.125 164.554688 C 246.777344 165.53125 246.402344 166.496094 246.007812 167.457031 C 245.609375 168.414062 245.191406 169.359375 244.746094 170.296875 C 244.304688 171.234375 243.839844 172.160156 243.347656 173.074219 C 242.859375 173.988281 242.351562 174.890625 241.816406 175.777344 C 241.285156 176.667969 240.730469 177.542969 240.15625 178.402344 C 239.578125 179.265625 238.980469 180.113281 238.363281 180.945312 C 237.746094 181.777344 237.109375 182.59375 236.453125 183.394531 C 235.796875 184.195312 235.117188 184.980469 234.421875 185.75 C 233.726562 186.515625 233.011719 187.265625 232.28125 188 C 231.546875 188.734375 230.796875 189.445312 230.027344 190.144531 C 229.261719 190.839844 228.476562 191.515625 227.675781 192.171875 C 226.875 192.832031 226.058594 193.46875 225.222656 194.085938 C 224.390625 194.703125 223.546875 195.300781 222.683594 195.875 C 221.820312 196.449219 220.945312 197.003906 220.058594 197.539062 C 219.167969 198.070312 218.265625 198.582031 217.351562 199.070312 C 216.4375 199.558594 215.511719 200.023438 214.578125 200.46875 C 213.640625 200.910156 212.691406 201.332031 211.734375 201.726562 C 210.777344 202.125 209.8125 202.496094 208.835938 202.84375 C 207.859375 203.195312 206.875 203.519531 205.882812 203.820312 C 204.890625 204.121094 203.894531 204.398438 202.886719 204.648438 C 201.882812 204.902344 200.871094 205.128906 199.855469 205.332031 C 198.839844 205.53125 197.820312 205.710938 196.792969 205.863281 C 195.769531 206.015625 194.738281 206.140625 193.707031 206.242188 C 192.675781 206.34375 191.644531 206.421875 190.609375 206.472656 C 189.574219 206.523438 188.539062 206.546875 187.5 206.546875 C 186.464844 206.546875 185.429688 206.523438 184.394531 206.472656 C 183.359375 206.421875 182.324219 206.34375 181.292969 206.242188 C 180.261719 206.140625 179.234375 206.015625 178.210938 205.863281 C 177.183594 205.710938 176.164062 205.53125 175.148438 205.332031 C 174.132812 205.128906 173.121094 204.902344 172.113281 204.648438 C 171.109375 204.398438 170.109375 204.121094 169.121094 203.820312 C 168.128906 203.519531 167.144531 203.195312 166.167969 202.84375 C 165.191406 202.496094 164.226562 202.125 163.269531 201.726562 C 162.308594 201.332031 161.363281 200.910156 160.425781 200.46875 C 159.488281 200.023438 158.5625 199.558594 157.648438 199.070312 C 156.734375 198.582031 155.835938 198.070312 154.945312 197.539062 C 154.058594 197.003906 153.179688 196.449219 152.320312 195.875 C 151.457031 195.300781 150.609375 194.703125 149.777344 194.085938 C 148.945312 193.46875 148.128906 192.832031 147.328125 192.171875 C 146.527344 191.515625 145.742188 190.839844 144.976562 190.144531 C 144.207031 189.445312 143.457031 188.734375 142.722656 188 C 141.992188 187.265625 141.277344 186.515625 140.582031 185.75 C 139.882812 184.980469 139.207031 184.195312 138.550781 183.394531 C 137.894531 182.59375 137.253906 181.777344 136.636719 180.945312 C 136.019531 180.113281 135.425781 179.265625 134.847656 178.402344 C 134.273438 177.542969 133.71875 176.667969 133.1875 175.777344 C 132.652344 174.890625 132.140625 173.988281 131.652344 173.074219 C 131.164062 172.160156 130.699219 171.234375 130.257812 170.296875 C 129.8125 169.359375 129.394531 168.414062 128.996094 167.457031 C 128.601562 166.496094 128.226562 165.53125 127.878906 164.554688 C 127.527344 163.578125 127.203125 162.597656 126.902344 161.605469 C 126.601562 160.613281 126.324219 159.613281 126.074219 158.609375 C 125.820312 157.601562 125.59375 156.59375 125.394531 155.574219 C 125.191406 154.558594 125.011719 153.539062 124.863281 152.511719 C 124.710938 151.488281 124.582031 150.460938 124.480469 149.429688 C 124.378906 148.398438 124.304688 147.363281 124.253906 146.328125 C 124.203125 145.292969 124.175781 144.257812 124.175781 143.222656 C 124.175781 142.183594 124.203125 141.148438 124.253906 140.113281 C 124.304688 139.078125 124.378906 138.046875 124.480469 137.015625 C 124.582031 135.984375 124.710938 134.957031 124.863281 133.929688 C 125.011719 132.90625 125.191406 131.882812 125.394531 130.867188 C 125.59375 129.851562 125.820312 128.839844 126.074219 127.835938 C 126.324219 126.828125 126.601562 125.832031 126.902344 124.839844 C 127.203125 123.847656 127.527344 122.863281 127.878906 121.886719 C 128.226562 120.914062 128.601562 119.945312 128.996094 118.988281 C 129.394531 118.03125 129.8125 117.082031 130.257812 116.148438 C 130.699219 115.210938 131.164062 114.285156 131.652344 113.371094 C 132.140625 112.457031 132.652344 111.554688 133.1875 110.667969 C 133.71875 109.777344 134.273438 108.902344 134.847656 108.039062 C 135.425781 107.179688 136.019531 106.332031 136.636719 105.5 C 137.253906 104.667969 137.894531 103.851562 138.550781 103.046875 C 139.207031 102.246094 139.882812 101.464844 140.582031 100.695312 C 141.277344 99.925781 141.992188 99.175781 142.722656 98.445312 C 143.457031 97.710938 144.207031 96.996094 144.976562 96.300781 C 145.742188 95.605469 146.527344 94.929688 147.328125 94.269531 C 148.128906 93.613281 148.945312 92.976562 149.777344 92.359375 C 150.609375 91.742188 151.457031 91.144531 152.320312 90.570312 C 153.179688 89.992188 154.058594 89.4375 154.945312 88.90625 C 155.835938 88.375 156.734375 87.863281 157.648438 87.375 C 158.5625 86.886719 159.488281 86.417969 160.425781 85.976562 C 161.363281 85.535156 162.308594 85.113281 163.269531 84.71875 C 164.226562 84.320312 165.191406 83.949219 166.167969 83.597656 C 167.144531 83.25 168.128906 82.925781 169.121094 82.625 C 170.109375 82.324219 171.109375 82.046875 172.113281 81.792969 C 173.121094 81.542969 174.132812 81.316406 175.148438 81.113281 C 176.164062 80.910156 177.183594 80.734375 178.210938 80.582031 C 179.234375 80.429688 180.261719 80.304688 181.292969 80.203125 C 182.324219 80.101562 183.359375 80.023438 184.394531 79.972656 C 185.429688 79.921875 186.464844 79.898438 187.5 79.898438 C 188.539062 79.894531 189.574219 79.921875 190.609375 79.972656 C 191.644531 80.023438 192.675781 80.101562 193.707031 80.203125 C 194.738281 80.304688 195.769531 80.429688 196.792969 80.582031 C 197.820312 80.734375 198.839844 80.910156 199.855469 81.113281 C 200.871094 81.316406 201.882812 81.542969 202.886719 81.792969 C 203.894531 82.046875 204.890625 82.324219 205.882812 82.625 C 206.875 82.925781 207.859375 83.25 208.835938 83.597656 C 209.8125 83.949219 210.777344 84.320312 211.734375 84.71875 C 212.691406 85.113281 213.640625 85.535156 214.578125 85.976562 C 215.511719 86.417969 216.4375 86.886719 217.351562 87.375 C 218.265625 87.863281 219.167969 88.375 220.058594 88.90625 C 220.945312 89.4375 221.820312 89.992188 222.683594 90.570312 C 223.546875 91.144531 224.390625 91.742188 225.222656 92.359375 C 226.058594 92.976562 226.875 93.613281 227.675781 94.269531 C 228.476562 94.929688 229.261719 95.605469 230.027344 96.300781 C 230.796875 96.996094 231.546875 97.710938 232.28125 98.445312 Z M 232.28125 98.445312 " fill-opacity="1" fill-rule="nonzero"/><path fill="#d1d3f2" d="M 189.332031 234.6875 L 185.671875 234.6875 C 133.929688 234.6875 90.355469 269.617188 77.226562 317.1875 C 106.960938 342.511719 145.472656 357.820312 187.5 357.820312 C 229.527344 357.820312 268.039062 342.511719 297.773438 317.1875 C 284.644531 269.621094 241.074219 234.6875 189.328125 234.6875 Z M 189.332031 234.6875 " fill-opacity="1" fill-rule="nonzero"/></svg>